# xmcd
#
# Track frame offsets:
#	150
#	18529
#	36653
#	51950
#	69021
#	82814
#	99322
#	115763
#	132831
#	147172
#	163948
#	189620
#	206306
#	222707
#	241091
#	266082
#
# Disc length: 3680 seconds
#
# Revision: 1
# Processed by: cddbd v1.5.1PL0 Copyright (c) Steve Scherf et al.
# Submitted via: audiograbber 1.83.01
#
DISCID=e40e5e10
DTITLE=Larry Schuba and Western Union - Die fetzigen Partyhits
DYEAR=1900
DGENRE=
TTITLE0=Wieder unterwegs
TTITLE1=Gottseidank ist endlich wieder Sommer
TTITLE2=Auf der Autobahn
TTITLE3=Baby sag ja
TTITLE4=Einfach mal einfach nichts tun
TTITLE5=Ich möcht' so gerne mal nach Nashville
TTITLE6=Bärenstark
TTITLE7=Komm Baby tanz mit mir
TTITLE8=Der liebe Gott muss'n Cowboy sein
TTITLE9=Bi-Ba-Baby
TTITLE10=Transit Cowboy
TTITLE11=Danke
TTITLE12=www.heissesherz.de
TTITLE13=Mädchen aus Berlin
TTITLE14=Mega-Hit-Dance-Mix
TTITLE15=Happy Go Lucky Swing
EXTD=
EXTT0=
EXTT1=
EXTT2=
EXTT3=
EXTT4=
EXTT5=
EXTT6=
EXTT7=
EXTT8=
EXTT9=
EXTT10=
EXTT11=
EXTT12=
EXTT13=
EXTT14=
EXTT15=
PLAYORDER=
